<?xml version="1.0" standalone="no"?>
<!DOCTYPE svg PUBLIC "-//W3C//DTD SVG 20010904//EN"
 "http://www.w3.org/TR/2001/REC-SVG-20010904/DTD/svg10.dtd">
<svg version="1.0" xmlns="http://www.w3.org/2000/svg"
 width="2000.000000pt" height="2000.000000pt" viewBox="0 0 2000.000000 2000.000000"
 preserveAspectRatio="xMidYMid meet">

<g transform="translate(0.000000,2000.000000) scale(0.100000,-0.100000)"
fill="#000000" stroke="none">
<path d="M4420 18668 c0 -56 207 -286 330 -366 162 -106 263 -90 299 46 46
169 -165 293 -561 328 -56 6 -68 4 -68 -8z"/>
<path d="M4020 18432 c-119 -83 -266 -229 -304 -301 -40 -74 -40 -145 -1 -200
30 -44 59 -67 99 -77 85 -21 180 81 254 272 54 142 92 374 60 374 -7 0 -56
-31 -108 -68z"/>
<path d="M5070 16667 c0 -24 70 -155 119 -222 69 -94 188 -206 260 -244 52
-27 71 -32 105 -28 78 10 130 105 112 203 -14 71 -125 162 -262 214 -80 30
-204 67 -250 74 -20 4 -48 9 -60 12 -18 5 -24 2 -24 -9z"/>
<path d="M4672 16490 c-138 -73 -229 -136 -303 -210 -102 -102 -126 -179 -81
-267 45 -87 124 -111 201 -60 83 55 185 217 242 384 26 76 50 203 38 203 -2 0
-46 -23 -97 -50z"/>
<path d="M5193 14845 c4 -25 23 -83 42 -127 92 -213 245 -387 355 -404 61 -10
140 83 140 165 0 91 -68 176 -213 264 -67 40 -252 126 -306 142 -24 7 -24 6
-18 -40z"/>
<path d="M4780 14771 c-142 -48 -235 -90 -322 -147 -151 -100 -192 -204 -124
-313 62 -97 147 -87 273 32 82 79 166 196 217 308 30 64 55 150 45 149 -2 -1
-42 -14 -89 -29z"/>
<path d="M4885 12973 c15 -140 85 -331 165 -451 57 -84 110 -118 182 -113 28
2 90 63 110 108 55 124 -73 296 -347 468 -49 30 -94 55 -102 55 -12 0 -13 -12
-8 -67z"/>
<path d="M4470 13003 c-404 -63 -587 -189 -529 -364 16 -47 56 -88 95 -95 95
-18 272 104 416 285 50 62 108 157 108 176 0 5 -50 5 -90 -2z"/>
<path d="M3390 11444 c-94 -18 -171 -47 -201 -77 -44 -43 -55 -136 -25 -208
20 -46 107 -62 209 -39 75 17 261 110 337 168 73 56 136 119 128 127 -12 12
-179 35 -278 38 -58 2 -134 -2 -170 -9z"/>
<path d="M4150 11303 c-33 -130 -18 -387 31 -519 30 -80 84 -134 133 -134 75
0 159 66 172 135 21 115 -63 287 -244 497 -31 37 -62 67 -68 67 -7 1 -17 -20
-24 -46z"/>
<path d="M14790 10278 c-39 -20 -76 -105 -90 -205 -13 -86 -9 -440 6 -576 6
-53 5 -59 -11 -55 -12 2 -32 37 -61 108 -163 394 -352 626 -496 607 -88 -12
-128 -77 -107 -176 24 -121 152 -341 306 -529 92 -113 91 -111 74 -121 -11 -7
-40 14 -110 76 -53 48 -140 119 -194 159 -265 198 -427 242 -491 133 -37 -63
4 -149 130 -269 214 -203 545 -344 842 -357 100 -5 122 -3 121 8 0 8 -6 48
-14 89 -13 75 -9 97 18 87 8 -3 18 -36 26 -91 15 -99 19 -102 115 -65 294 109
625 561 643 874 5 83 3 93 -19 125 -42 62 -114 50 -181 -32 -77 -94 -151 -235
-242 -463 -37 -92 -57 -131 -70 -134 -20 -3 -20 -8 6 179 17 121 17 382 0 450
-17 69 -57 145 -86 164 -33 22 -87 28 -115 14z"/>
<path d="M2299 10136 c-2 -2 -31 -6 -64 -10 -116 -12 -275 -67 -331 -114 -71
-60 -54 -154 34 -195 42 -20 63 -22 217 -22 174 1 186 2 428 57 130 30 168 30
149 3 -4 -6 -50 -28 -102 -49 -289 -117 -520 -268 -570 -371 -39 -80 0 -161
88 -185 131 -35 387 84 660 307 113 92 109 90 123 76 10 -10 -2 -34 -53 -110
-102 -152 -153 -240 -202 -346 -56 -121 -79 -206 -73 -271 5 -58 27 -81 87
-91 127 -22 287 187 421 550 40 109 47 119 66 104 7 -7 11 -19 8 -28 -14 -47
-36 -303 -36 -430 0 -241 32 -341 109 -341 72 0 135 90 169 240 24 104 23 372
0 495 -39 198 -112 364 -207 467 -32 35 -60 61 -62 58 -121 -153 -120 -152
-135 -137 -14 13 -9 23 42 87 66 83 71 72 -61 136 -83 40 -258 93 -359 109
-49 7 -339 17 -346 11z"/>
<path d="M14190 7997 c-22 -8 -45 -28 -65 -55 -26 -37 -30 -53 -30 -106 0 -54
4 -67 33 -106 65 -90 217 -183 424 -261 49 -18 91 -30 94 -26 10 9 -25 116
-63 191 -76 152 -177 281 -260 334 -60 37 -89 43 -133 29z"/>
<path d="M15315 7883 c-91 -48 -198 -175 -277 -328 -48 -95 -86 -200 -75 -211
10 -10 149 41 262 96 276 134 365 293 235 422 -31 31 -45 38 -76 38 -22 -1
-52 -8 -69 -17z"/>
<path d="M14194 6351 c-60 -27 -96 -80 -102 -147 -4 -46 0 -64 26 -117 39 -78
106 -160 197 -238 75 -65 188 -149 200 -149 14 0 -3 214 -23 290 -57 214 -144
355 -232 375 -14 3 -43 -3 -66 -14z"/>
<path d="M15203 5906 c-80 -38 -168 -101 -256 -185 -74 -71 -157 -177 -157
-200 0 -15 104 -13 230 4 328 45 459 146 408 317 -26 88 -118 114 -225 64z"/>
<path d="M13703 4665 c-77 -39 -98 -73 -98 -161 0 -63 5 -80 42 -155 49 -98
146 -229 231 -313 l60 -59 13 44 c18 61 15 296 -4 389 -22 110 -55 189 -96
232 -48 51 -82 56 -148 23z"/>
<path d="M14603 4050 c-86 -30 -210 -100 -296 -164 -74 -56 -146 -130 -136
-140 10 -10 196 -26 305 -26 196 0 313 40 365 124 16 25 19 45 17 100 -3 62
-7 71 -36 97 -29 26 -39 29 -100 28 -38 0 -89 -8 -119 -19z"/>
<path d="M12858 3200 c-149 -79 -121 -287 82 -595 39 -58 75 -103 80 -100 14
9 46 118 60 206 8 47 10 130 8 215 -6 156 -22 216 -70 264 -25 25 -37 30 -76
30 -26 -1 -63 -9 -84 -20z"/>
<path d="M13625 2451 c-140 -38 -306 -117 -377 -181 l-43 -38 85 -25 c312 -94
542 -82 612 31 15 25 21 52 22 98 1 59 -1 66 -32 96 -31 31 -36 33 -115 35
-56 2 -104 -3 -152 -16z"/>
<path d="M11435 1786 c-146 -63 -138 -280 20 -595 30 -61 59 -111 65 -111 12
0 64 111 83 180 65 229 60 439 -13 512 -24 23 -37 28 -77 28 -26 -1 -62 -7
-78 -14z"/>
<path d="M12040 940 c-104 -22 -218 -62 -286 -101 -86 -49 -86 -52 11 -92 393
-165 635 -135 639 79 0 45 -4 58 -28 83 -51 53 -178 65 -336 31z"/>
</g>
</svg>
