<?xml version="1.0" standalone="no"?>
<!DOCTYPE svg PUBLIC "-//W3C//DTD SVG 20010904//EN"
 "http://www.w3.org/TR/2001/REC-SVG-20010904/DTD/svg10.dtd">
<svg version="1.0" xmlns="http://www.w3.org/2000/svg"
 width="2000.000000pt" height="2000.000000pt" viewBox="0 0 2000.000000 2000.000000"
 preserveAspectRatio="xMidYMid meet">

<g transform="translate(0.000000,2000.000000) scale(0.100000,-0.100000)"
fill="#000000" stroke="none">
<path d="M7324 19095 c-150 -75 -371 -331 -572 -662 -490 -810 -845 -1969
-958 -3128 l-16 -170 -75 -175 c-370 -859 -715 -1611 -1019 -2220 -215 -430
-364 -697 -487 -873 -262 -372 -782 -962 -1555 -1761 -138 -143 -249 -263
-246 -267 2 -4 21 -10 41 -14 21 -4 344 -82 718 -175 374 -92 740 -182 813
-200 91 -22 132 -37 132 -47 0 -7 -38 -134 -84 -281 -210 -665 -296 -1047
-255 -1124 10 -18 17 -20 71 -14 124 14 621 150 1029 282 148 47 151 47 173
-23 76 -244 409 -1144 571 -1543 359 -887 654 -1397 785 -1355 46 14 158 222
301 555 56 131 93 205 102 205 8 0 102 -115 208 -255 1370 -1811 2567 -3098
3134 -3370 78 -38 192 -76 201 -68 2 3 78 184 168 403 l164 398 328 415 c181
229 372 470 425 536 52 67 232 294 399 506 307 389 890 1127 1095 1385 61 77
142 179 180 227 38 49 74 88 81 88 6 0 39 -69 74 -153 226 -544 396 -877 449
-877 49 0 144 101 238 251 230 369 593 1274 974 2424 56 171 104 312 105 314
2 2 122 -30 266 -72 501 -146 786 -217 910 -225 l77 -5 7 28 c24 96 -75 492
-271 1081 -52 157 -95 294 -95 303 0 13 14 21 48 29 26 6 106 27 177 46 708
188 1122 297 1287 340 l198 51 -301 300 c-350 349 -664 674 -904 935 -219 239
-265 293 -265 314 0 9 -11 21 -24 25 -40 16 -305 343 -433 536 -271 409 -773
1405 -1395 2770 l-160 350 -24 200 c-97 808 -298 1588 -587 2275 -132 314
-350 721 -514 959 -204 297 -451 531 -561 531 -16 0 -41 -9 -56 -21 -34 -27
-112 -189 -166 -344 -164 -473 -426 -1568 -678 -2830 l-28 -140 -45 2 c-84 4
-372 52 -380 64 -4 7 -16 10 -27 7 -11 -3 -96 7 -189 22 -549 91 -1268 101
-1833 25 -63 -8 -176 -22 -250 -31 -74 -8 -198 -26 -275 -39 -76 -13 -140 -23
-142 -21 -1 1 -43 184 -92 407 -377 1698 -669 2715 -829 2887 -37 39 -70 41
-138 7z"/>
<path d="M1480 12759 c-74 -30 -115 -115 -131 -271 -11 -107 -1 -288 25 -446
11 -72 11 -85 -1 -89 -21 -8 -26 1 -68 112 -55 147 -156 350 -214 432 -66 93
-107 125 -157 121 -54 -4 -77 -40 -82 -127 -5 -93 24 -196 98 -346 146 -296
381 -522 601 -580 l47 -13 11 77 c16 99 20 111 36 111 24 0 25 -15 10 -101 -8
-46 -15 -86 -15 -88 0 -2 55 -1 123 2 241 12 476 94 704 246 157 105 283 252
283 329 0 42 -37 90 -79 103 -119 36 -326 -83 -667 -385 -42 -37 -54 -43 -63
-32 -8 10 6 34 65 107 160 196 280 399 311 525 15 59 15 71 2 107 -17 48 -50
75 -102 84 -144 23 -324 -195 -497 -602 -50 -117 -76 -141 -74 -70 0 22 6 117
12 210 18 278 -7 484 -67 554 -29 34 -72 46 -111 30z"/>
<path d="M18450 12758 c-39 -20 -76 -105 -90 -205 -13 -86 -9 -440 6 -576 6
-53 5 -59 -11 -55 -12 2 -32 37 -61 108 -163 394 -352 626 -496 607 -88 -12
-128 -77 -107 -176 24 -121 152 -341 306 -529 92 -113 91 -111 74 -121 -11 -7
-40 14 -110 76 -53 48 -140 119 -194 159 -265 198 -427 242 -491 133 -37 -63
4 -149 130 -269 214 -203 545 -344 842 -357 100 -5 122 -3 121 8 0 8 -6 48
-14 89 -13 75 -9 97 18 87 8 -3 18 -36 26 -91 15 -99 19 -102 115 -65 294 109
625 561 643 874 5 83 3 93 -19 125 -42 62 -114 50 -181 -32 -77 -94 -151 -235
-242 -463 -37 -92 -57 -131 -70 -134 -20 -3 -20 -8 6 179 17 121 17 382 0 450
-17 69 -57 145 -86 164 -33 22 -87 28 -115 14z"/>
<path d="M2090 10477 c-99 -26 -242 -191 -331 -382 -31 -66 -62 -165 -54 -173
13 -14 272 96 359 152 31 20 58 36 60 36 2 0 1 -12 -2 -27 l-5 -26 29 21 c73
53 123 111 144 167 10 27 10 28 -7 14 -36 -31 -44 -32 -33 -4 19 50 12 108
-19 157 -16 25 -34 49 -40 53 -27 16 -68 21 -101 12z"/>
<path d="M17850 10477 c-22 -8 -45 -28 -65 -55 -26 -37 -30 -53 -30 -106 0
-54 4 -67 33 -106 65 -90 217 -183 424 -261 49 -18 91 -30 94 -26 10 9 -25
116 -63 191 -76 152 -177 281 -260 334 -60 37 -89 43 -133 29z"/>
<path d="M889 10340 c-36 -38 -59 -91 -59 -135 1 -68 83 -163 207 -238 75 -45
263 -127 327 -143 l29 -7 -7 39 c-22 114 -143 323 -249 429 -70 69 -117 95
-173 95 -30 0 -44 -7 -75 -40z"/>
<path d="M18975 10363 c-91 -48 -198 -175 -277 -328 -48 -95 -86 -200 -75
-211 10 -10 149 41 262 96 276 134 365 293 235 422 -31 31 -45 38 -76 38 -22
-1 -52 -8 -69 -17z"/>
<path d="M2065 8836 c-103 -45 -216 -308 -232 -538 -8 -121 -4 -127 53 -87
156 107 295 249 349 356 56 113 20 222 -87 268 -44 18 -45 18 -83 1z"/>
<path d="M17854 8831 c-60 -27 -96 -80 -102 -147 -4 -46 0 -64 26 -117 39 -78
106 -160 197 -238 75 -65 188 -149 200 -149 14 0 -3 214 -23 290 -57 214 -144
355 -232 375 -14 3 -43 -3 -66 -14z"/>
<path d="M971 8394 c-13 -9 -32 -35 -42 -58 -51 -113 9 -216 160 -275 78 -31
241 -61 369 -68 l115 -6 -24 43 c-33 59 -175 208 -258 269 -135 100 -259 137
-320 95z"/>
<path d="M18863 8386 c-80 -38 -168 -101 -256 -185 -74 -71 -157 -177 -157
-200 0 -15 104 -13 230 4 328 45 459 146 408 317 -26 88 -118 114 -225 64z"/>
<path d="M2532 7150 c-73 -45 -124 -179 -141 -370 -9 -106 -1 -254 17 -300 9
-24 10 -23 78 49 96 101 177 212 221 301 34 67 38 83 38 150 0 93 -23 130 -99
166 -62 29 -72 29 -114 4z"/>
<path d="M17363 7145 c-77 -39 -98 -73 -98 -161 0 -63 5 -80 42 -155 49 -98
146 -229 231 -313 l60 -59 13 44 c18 61 15 296 -4 389 -22 110 -55 189 -96
232 -48 51 -82 56 -148 23z"/>
<path d="M1541 6534 c-53 -38 -69 -155 -28 -215 54 -80 139 -110 329 -116 140
-5 338 11 338 28 0 31 -145 152 -268 224 -145 84 -312 120 -371 79z"/>
<path d="M18263 6530 c-86 -30 -210 -100 -296 -164 -74 -56 -146 -130 -136
-140 10 -10 196 -26 305 -26 196 0 313 40 365 124 16 25 19 45 17 100 -3 62
-7 71 -36 97 -29 26 -39 29 -100 28 -38 0 -89 -8 -119 -19z"/>
<path d="M3338 5673 c-58 -62 -78 -142 -78 -307 0 -130 21 -266 52 -339 l22
-50 23 29 c13 16 49 70 80 119 146 234 189 419 116 505 -60 72 -168 93 -215
43z"/>
<path d="M16518 5680 c-149 -79 -121 -287 82 -595 39 -58 75 -103 80 -100 14
9 46 118 60 206 8 47 10 130 8 215 -6 156 -22 216 -70 264 -25 25 -37 30 -76
30 -26 -1 -63 -9 -84 -20z"/>
<path d="M2482 4930 c-44 -27 -65 -78 -56 -136 26 -177 237 -217 604 -117 52
14 99 29 103 33 16 14 -78 82 -188 136 -199 98 -385 131 -463 84z"/>
<path d="M17285 4931 c-140 -38 -306 -117 -377 -181 l-43 -38 85 -25 c312 -94
542 -82 612 31 15 25 21 52 22 98 1 59 -1 66 -32 96 -31 31 -36 33 -115 35
-56 2 -104 -3 -152 -16z"/>
<path d="M4768 4260 c-78 -61 -87 -283 -22 -509 30 -103 72 -193 87 -188 19 6
115 204 149 307 22 69 32 120 35 185 4 81 2 95 -19 134 -43 81 -169 120 -230
71z"/>
<path d="M15095 4266 c-146 -63 -138 -280 20 -595 30 -61 59 -111 65 -111 12
0 64 111 83 180 65 229 60 439 -13 512 -24 23 -37 28 -77 28 -26 -1 -62 -7
-78 -14z"/>
<path d="M4035 3426 c-60 -23 -85 -57 -85 -117 0 -158 128 -221 356 -173 86
17 257 75 323 108 l45 23 -43 31 c-134 97 -479 171 -596 128z"/>
<path d="M15700 3420 c-104 -22 -218 -62 -286 -101 -86 -49 -86 -52 11 -92
393 -165 635 -135 639 79 0 45 -4 58 -28 83 -51 53 -178 65 -336 31z"/>
<path d="M9996 1803 c-4 -9 -2 -21 4 -27 15 -15 12 -24 -7 -29 -10 -2 11 -6
45 -8 73 -5 93 6 32 16 -33 6 -39 9 -29 21 6 7 9 21 5 29 -7 20 -42 19 -50 -2z"/>
</g>
</svg>
